<?xml version="1.0" encoding="utf-8"?>
<!-- Generator: Adobe Illustrator 14.0.0, SVG Export Plug-In  -->
<!DOCTYPE svg PUBLIC "-//W3C//DTD SVG 1.1//EN" "http://www.w3.org/Graphics/SVG/1.1/DTD/svg11.dtd" [
	<!ENTITY ns_flows "http://ns.adobe.com/Flows/1.0/">
]>
<svg version="1.1"
	 xmlns="http://www.w3.org/2000/svg" xmlns:xlink="http://www.w3.org/1999/xlink" xmlns:a="http://ns.adobe.com/AdobeSVGViewerExtensions/3.0/"
	 x="0px" y="0px" width="89px" height="914px" viewBox="0 0 89 914" enable-background="new 0 0 89 914" xml:space="preserve">
<defs>
</defs>
<path d="M22.431,13.839c0.7-4.5,1.2-8.9,1.601-13.101l6.1,0.4c-0.5,4.1-1,8.301-1.699,12.701h31.401v5.5H27.432
	C23.23,43.041,15.631,69.542,6.63,85.744l-5.4-2.8c8.9-15.501,16.301-41.002,20.302-63.604H2.43v-5.5H22.431z M46.732,59.542
	c-2.301,4.3-3.5,7.7-3.5,10.701c0,5.5,8,7.4,24.4,7.4c4.701,0,9.701-0.3,14.201-0.9v5.601c-4.6,0.4-9.301,0.6-14.201,0.6
	c-19,0-29.901-2.9-29.901-11.401c0-3.8,1.2-7.8,4.001-13.201L46.732,59.542z M80.534,36.94c-3.601-0.3-8.601-0.4-13.501-0.4
	c-7.9,0-16.801,0.4-23.901,1.3l-0.2-5.3c7.101-0.8,16.602-1.1,24.802-1.2c4.8,0,9.301,0.1,12.801,0.3V36.94z"/>
<path d="M24.931,124.24c1.9-7.701,3.3-15.601,4.3-23.602l5.9,0.7c-1.1,7.5-2.6,15.001-4.4,22.401c3.602-0.2,6.801-0.4,9.401-0.4
	c12.401,0,18.101,6.9,18.101,21.301c0,14.801-2.8,29.402-6.5,35.302c-2.7,4.4-5.7,5.9-11.701,5.9c-4.5,0-10-0.7-14.301-1.7
	l0.5-5.601c4,1.2,9.301,1.8,12.701,1.8c4.301,0,5.9-0.6,8-3.7c3.301-4.9,5.501-18.401,5.501-31.902
	c0-11.601-3.7-16.001-12.801-16.001c-2.8,0-6.4,0.2-10.301,0.5C23.83,149.641,15.93,168.442,7.13,181.043l-5.101-2.8
	c8.601-11.901,16.201-29.302,21.502-48.603c-7.501,0.7-15.502,1.8-22.002,3l-1-5.6C7.529,126.04,16.631,124.94,24.931,124.24z
	 M88.935,158.342l-5.8,1.4c-1.9-13.101-7.9-27.901-18.901-39.102l4.8-3.2C80.635,129.34,86.935,145.341,88.935,158.342z"/>
<path d="M22.33,201.738c-0.899,21.901-1,42.903-1,53.003c0,18.101,6.4,25.102,20.802,25.102c14.2,0,25.001-7.401,32.202-30.602
	l5.6,2.7c-8.699,25.702-21.4,33.802-38.002,33.802c-18.501,0-26.502-10.601-26.502-30.802c0-9.9,0.301-31.402,0.4-53.203H22.33z"/>
<path d="M40.531,335.24c-0.199-5.7-0.299-11.601-0.399-17.101H6.729v-5.3h33.302c-0.1-4.6-0.199-8.8-0.199-12.201h6.1
	c0,2.3,0,4.9,0,7.8c0,1.4,0,2.8,0,4.4h31.502v5.3H46.032c0,5.5,0.2,11.401,0.3,17.101h29.102v5.3H46.532
	c0.2,7.701,0.399,14.701,0.5,19.602c10.501,3.6,20.901,9.601,29.602,16.301l-4,4.6c-7.501-6.3-16.501-11.801-25.501-15.301
	c-0.201,14.101-5.602,20.101-20.302,20.101c-12.901,0-21.102-6.4-21.102-14.401c0-8.9,8.2-15.001,21.602-15.001
	c4.5,0,9.101,0.7,13.801,1.9c-0.101-4.7-0.3-11-0.5-17.801H8.73v-5.3H40.531z M27.131,361.542c-9.9,0-15.9,3.9-15.9,9.801
	c0,5.5,5.8,9.4,15.201,9.4c11.199,0,14.7-4.5,14.7-16.101v-0.9C36.332,362.342,31.531,361.542,27.131,361.542z"/>
<path d="M22.33,428.737c-0.899,21.901-1,42.903-1,53.003c0,18.101,6.4,25.102,20.802,25.102c14.2,0,25.001-7.401,32.202-30.602
	l5.6,2.7c-8.699,25.702-21.4,33.802-38.002,33.802c-18.501,0-26.502-10.601-26.502-30.802c0-9.9,0.301-31.402,0.4-53.203H22.33z"/>
<path d="M37.531,530.337c-5.2,14.401-11.801,32.502-16.301,44.103c5-5.4,9.9-8.2,15.102-8.2c7.9,0,11.6,5.4,11.6,23.001
	c0,14.101,4.602,17.801,11.102,17.801c9.6,0,17.101-8.5,20.4-31.002l5.701,1.5c-4.201,25.602-13.701,35.102-26.502,35.102
	c-9.701,0-16.201-6.5-16.201-22.301c0-14.301-2.699-18.501-8-18.501c-3.801,0-8,2.3-12.801,8c-1.4,1.7-3.4,4.5-4.5,6.8
	c-2.9,6-7.9,18.102-11.102,26.102l-5.8-2.3c9.501-19.801,25.501-62.904,31.202-81.805L37.531,530.337z"/>
<path d="M4.729,661.139c14.001,0,30.502-0.6,45.503-1.6c-1.801-4.3-3.4-9-4.801-13.701c-12.301,0.9-25.4,1.5-37.102,1.6l-0.2-5.2
	c11.301,0,24.001-0.5,35.901-1.3c-1.199-4.3-2.199-8.601-2.899-12.801l6.2-0.7c0.6,4.2,1.4,8.6,2.5,13.101
	c9.801-0.8,18.901-1.8,26.002-2.9l0.7,5.201c-7.001,1-15.802,1.9-25.401,2.6c1.3,4.7,2.9,9.3,4.699,13.701
	c9.901-0.7,18.902-1.6,25.702-2.7l0.601,5.2c-6.4,0.9-14.801,1.7-24.102,2.4c3.6,7.8,7.9,14.601,12.9,19.601l-3.1,4.601
	c-11.301-5.5-23.502-7.701-34.303-7.701c-12.301,0-18.602,5.4-18.602,12.901c0,9.101,12.002,14.001,32.303,14.001
	c4.4,0,10.2-0.2,15.601-0.6l-0.399,5.6c-4.701,0.4-10.102,0.5-14.201,0.5c-25.402,0-39.203-7.101-39.203-19.601
	c0-10.801,8.9-17.701,23.902-17.701c9.1,0,19.602,1.4,28.901,5.4c-3.2-4.1-6.501-9.9-9.501-16.601c-15.601,1.1-32.802,1.8-47.402,2
	L4.729,661.139z"/>
<path d="M64.233,732.237l3.101,4.601c-11.502,10.4-26.803,23.102-35.902,31.102c7-2.9,14.4-4.3,21.801-4.3
	c13.9,0,23.802,9.101,23.802,21.901c0,16.501-12.101,26.802-43.803,26.802c-1.9,0-4.3,0-6.7-0.101l-1.2-6c2.7,0.3,5.399,0.3,7.3,0.3
	c29.402,0,38.303-7.9,38.303-21.102c0-10-8.301-16.601-19.201-16.601c-6.9,0-16.001,1.7-23.401,5.101
	c-6.101,2.899-14.601,8.7-22.102,15.101l-3.7-4.4c14.102-10.501,43.402-35.402,54.403-46.303c-11.101,0.7-31.702,1.5-44.202,2
	l-0.5-5.8C25.631,734.538,51.232,733.337,64.233,732.237z"/>
<path d="M46.532,853.539c15.2,0,26.001,8.4,26.001,24.602c0,20.001-16.601,32.401-51.603,35.502l-1.601-5.801
	c32.103-2.6,46.903-12.4,46.903-29.501c0-12.401-8.2-19.201-19.901-19.201c-9.5,0-25.701,2.5-38.402,5.8l-1.4-5.8
	C20.131,856.039,35.631,853.539,46.532,853.539z M24.131,826.837c9.5,4.001,26.201,8.201,39.402,10.601l-1.1,5.601
	c-13.401-2.7-30.702-7-40.303-10.7L24.131,826.837z"/>
<rect id="_x3C_スライス_x3E__1_" fill="none" width="89" height="914"/>
</svg>
