<?xml version="1.0" encoding="utf-8"?>
<!-- Generator: Adobe Illustrator 14.0.0, SVG Export Plug-In  -->
<!DOCTYPE svg PUBLIC "-//W3C//DTD SVG 1.1//EN" "http://www.w3.org/Graphics/SVG/1.1/DTD/svg11.dtd" [
	<!ENTITY ns_flows "http://ns.adobe.com/Flows/1.0/">
]>
<svg version="1.1"
	 xmlns="http://www.w3.org/2000/svg" xmlns:xlink="http://www.w3.org/1999/xlink" xmlns:a="http://ns.adobe.com/AdobeSVGViewerExtensions/3.0/"
	 x="0px" y="0px" width="90px" height="914px" viewBox="0 0 90 914" enable-background="new 0 0 90 914" xml:space="preserve">
<defs>
</defs>
<path fill="#FFFFFF" d="M22.533,13.706c0.7-4.5,1.2-8.9,1.601-13.101l6.1,0.4c-0.5,4.1-1,8.301-1.699,12.701h31.402v5.5H27.534
	C23.333,42.908,15.733,69.409,6.731,85.61l-5.4-2.8c8.9-15.501,16.301-41.002,20.302-63.604H2.531v-5.5H22.533z M46.835,59.409
	c-2.301,4.3-3.5,7.7-3.5,10.701c0,5.5,8,7.4,24.401,7.4c4.702,0,9.702-0.3,14.202-0.9v5.601c-4.6,0.4-9.301,0.6-14.202,0.6
	c-19,0-29.902-2.9-29.902-11.401c0-3.8,1.2-7.8,4.001-13.201L46.835,59.409z M80.638,36.807c-3.601-0.3-8.601-0.4-13.501-0.4
	c-7.9,0-16.801,0.4-23.902,1.3l-0.2-5.3c7.101-0.8,16.602-1.1,24.802-1.2c4.8,0,9.301,0.1,12.801,0.3V36.807z"/>
<path fill="#FFFFFF" d="M25.033,124.106c1.901-7.701,3.3-15.601,4.3-23.602l5.9,0.7c-1.1,7.5-2.6,15.001-4.4,22.401
	c3.602-0.2,6.801-0.4,9.402-0.4c12.401,0,18.101,6.9,18.101,21.301c0,14.801-2.8,29.402-6.5,35.302c-2.7,4.4-5.7,5.9-11.701,5.9
	c-4.5,0-10-0.7-14.302-1.7l0.5-5.601c4,1.2,9.301,1.8,12.701,1.8c4.301,0,5.901-0.6,8-3.7c3.301-4.9,5.501-18.401,5.501-31.902
	c0-11.601-3.7-16.001-12.801-16.001c-2.8,0-6.4,0.2-10.301,0.5c-5.501,20.401-13.402,39.202-22.202,51.803l-5.101-2.8
	c8.601-11.901,16.202-29.302,21.502-48.603c-7.501,0.7-15.502,1.8-22.002,3l-1-5.6C7.631,125.907,16.733,124.807,25.033,124.106z
	 M89.039,158.208l-5.8,1.4c-1.901-13.101-7.901-27.901-18.902-39.102l4.8-3.2C80.739,129.207,87.039,145.208,89.039,158.208z"/>
<path fill="#FFFFFF" d="M22.432,201.605c-0.899,21.901-1,42.903-1,53.003c0,18.101,6.401,25.102,20.803,25.102
	c14.201,0,25.001-7.401,32.203-30.602l5.6,2.7c-8.699,25.702-21.401,33.802-38.003,33.802c-18.502,0-26.503-10.601-26.503-30.802
	c0-9.9,0.301-31.402,0.4-53.203H22.432z"/>
<path fill="#FFFFFF" d="M40.634,335.107c-0.199-5.7-0.299-11.601-0.399-17.101H6.831v-5.3h33.303c-0.1-4.6-0.2-8.8-0.2-12.201h6.1
	c0,2.3,0,4.9,0,7.8c0,1.4,0,2.8,0,4.4h31.503v5.3H46.135c0,5.5,0.2,11.401,0.3,17.101h29.103v5.3H46.635
	c0.2,7.701,0.399,14.701,0.5,19.602c10.501,3.6,20.902,9.601,29.603,16.301l-4,4.6c-7.501-6.3-16.501-11.801-25.502-15.301
	c-0.201,14.101-5.602,20.101-20.302,20.101c-12.902,0-21.103-6.4-21.103-14.401c0-8.9,8.201-15.001,21.603-15.001
	c4.5,0,9.101,0.7,13.801,1.9c-0.101-4.7-0.3-11-0.5-17.801H8.832v-5.3H40.634z M27.233,361.409c-9.901,0-15.901,3.9-15.901,9.801
	c0,5.5,5.8,9.4,15.202,9.4c11.199,0,14.701-4.5,14.701-16.101v-0.9C36.435,362.208,31.634,361.409,27.233,361.409z"/>
<path fill="#FFFFFF" d="M22.432,428.604c-0.899,21.901-1,42.903-1,53.003c0,18.101,6.401,25.102,20.803,25.102
	c14.201,0,25.001-7.401,32.203-30.602l5.6,2.7c-8.699,25.702-21.401,33.802-38.003,33.802c-18.502,0-26.503-10.601-26.503-30.802
	c0-9.9,0.301-31.402,0.4-53.203H22.432z"/>
<path fill="#FFFFFF" d="M37.634,530.204c-5.2,14.401-11.801,32.502-16.301,44.103c5-5.4,9.901-8.2,15.102-8.2
	c7.901,0,11.6,5.4,11.6,23.001c0,14.101,4.602,17.801,11.102,17.801c9.6,0,17.101-8.5,20.401-31.002l5.702,1.5
	c-4.202,25.602-13.702,35.102-26.503,35.102c-9.702,0-16.202-6.5-16.202-22.301c0-14.301-2.7-18.501-8-18.501
	c-3.801,0-8,2.3-12.801,8c-1.4,1.7-3.4,4.5-4.5,6.8c-2.9,6-7.901,18.102-11.102,26.102l-5.8-2.3
	c9.501-19.801,25.501-62.904,31.203-81.805L37.634,530.204z"/>
<path fill="#FFFFFF" d="M4.831,661.006c14.001,0,30.503-0.6,45.504-1.6c-1.801-4.3-3.4-9-4.801-13.701
	c-12.301,0.9-25.401,1.5-37.103,1.6l-0.2-5.2c11.301,0,24.002-0.5,35.903-1.3c-1.199-4.3-2.199-8.601-2.899-12.801l6.2-0.7
	c0.6,4.2,1.4,8.6,2.5,13.101c9.801-0.8,18.902-1.8,26.003-2.9l0.7,5.201c-7.001,1-15.802,1.9-25.402,2.6c1.3,4.7,2.9,9.3,4.7,13.701
	c9.901-0.7,18.903-1.6,25.703-2.7l0.601,5.2c-6.4,0.9-14.801,1.7-24.102,2.4c3.6,7.8,7.9,14.601,12.901,19.601l-3.1,4.601
	c-11.301-5.5-23.502-7.701-34.304-7.701c-12.301,0-18.602,5.4-18.602,12.901c0,9.101,12.002,14.001,32.304,14.001
	c4.4,0,10.201-0.2,15.601-0.6l-0.399,5.6c-4.701,0.4-10.102,0.5-14.202,0.5c-25.403,0-39.205-7.101-39.205-19.601
	c0-10.801,8.901-17.701,23.903-17.701c9.1,0,19.602,1.4,28.902,5.4c-3.2-4.1-6.501-9.9-9.501-16.601
	c-15.601,1.1-32.803,1.8-47.404,2L4.831,661.006z"/>
<path fill="#FFFFFF" d="M64.337,732.104l3.101,4.601c-11.502,10.4-26.803,23.102-35.903,31.102c7-2.9,14.401-4.3,21.801-4.3
	c13.901,0,23.803,9.101,23.803,21.901c0,16.5-12.101,26.801-43.804,26.801c-1.9,0-4.3,0-6.7-0.101l-1.201-6
	c2.701,0.3,5.4,0.3,7.3,0.3c29.403,0,38.304-7.9,38.304-21.101c0-10-8.301-16.601-19.202-16.601c-6.9,0-16.001,1.7-23.402,5.101
	c-6.101,2.899-14.601,8.7-22.103,15.101l-3.7-4.4c14.102-10.501,43.404-35.402,54.405-46.303c-11.101,0.7-31.704,1.5-44.204,2
	l-0.5-5.8C25.733,734.404,51.335,733.204,64.337,732.104z"/>
<path fill="#FFFFFF" d="M46.635,853.403c15.201,0,26.002,8.4,26.002,24.602c0,20.001-16.601,32.401-51.604,35.502l-1.601-5.801
	c32.104-2.6,46.905-12.4,46.905-29.501c0-12.401-8.2-19.201-19.902-19.201c-9.5,0-25.702,2.5-38.404,5.8l-1.4-5.8
	C20.233,855.903,35.733,853.403,46.635,853.403z M24.233,826.702c9.5,4.001,26.202,8.201,39.404,10.601l-1.1,5.601
	c-13.402-2.7-30.703-7-40.304-10.7L24.233,826.702z"/>
<rect id="_x3C_スライス_x3E__2_" fill="none" width="90" height="914"/>
</svg>
